<svg version="1.1" id="Calque_1" xmlns="http://www.w3.org/2000/svg" x="0px" y="0px" viewBox="0 0 360 360" enable-background="new 0 0 360 360" width="360" height="360"><path class="st0" d="M159.45 118.47c-0.59 0.1-1.19 0.17-1.79 0.18c-7.65 0.15-26.56 1.05-31.96 2.55c-5.4 1.5-8.85 0.75-18.31-1.35
	c-9.45-2.1-17.86 0.9-17.86 0.9s-8.33-4.8-9.53-6.98c-1.2-2.18-2.55-3.82-3.3-2.33c-0.75 1.5 0.75 5.03 0.9 5.4
	c0.15 0.38-3.75 0.38-8.7 0.53c-4.95 0.15-6.75 5.1-4.95 9.15c1.8 4.05 16.06 2.7 20.41 2.7c4.35 0 6.3-0.9 8.85-0.6
	c2.55 0.3 15.16 1.95 23.56 1.35c8.4-0.6 14.56 1.5 22.66 1.95c8.1 0.45 13.51-1.8 17.71 4.8c4.2 6.6 6.75 26.11 5.4 34.81
	c-1.35 8.7-7.5 18.46-4.8 37.36c2.7 18.91 3.6 25.66 1.65 41.87c-1.95 16.2-2.7 25.51 0.6 33.91c3.3 8.4 8.25 18.9 6.9 21.9
	c-1.35 3-2.1 8.4 0.3 8.71c2.4 0.3 15.38 1.65 14.11-2.4c-1.28-4.05-4.8-5.55-6.3-13.66c-1.5-8.1-1.35-24.76-1.95-28.81
	c-0.6-4.05-3.3-13.5-1.5-17.11c1.8-3.6 4.51-18.3 5.41-25.06c0.9-6.75 3.07-14.26 3.07-14.26s0 26.41 0 34.07
	c0 7.65-4.72 19.51-3.22 27.31c1.5 7.8 7.65 21.91 8.25 26.71c0.6 4.8-1.35 10.21 1.65 11.11c3 0.9 25.21 0.75 27.16 0.75
	c1.95 0-1.5-2.85-8.1-5.55c-6.6-2.7-14.71-3.75-14.11-18.46c0.6-14.71-0.75-29.41 0.15-32.11c0.9-2.7 2.55-8.25 2.55-12.46
	c0-3.59 4.94-20.04 6-41.26c0-17.71-2.02-27.21-2.85-32.57c-1.35-8.7 1.2-28.21 5.4-34.81s9.61-4.35 17.71-4.8
	c8.1-0.45 14.26-2.55 22.66-1.95c8.4 0.6 21.01-1.05 23.56-1.35c2.55-0.3 4.5 0.6 8.86 0.6c4.35 0 18.61 1.35 20.41-2.7
	c1.8-4.05 0-9-4.95-9.15c-4.95-0.15-8.86-0.15-8.71-0.53c0.15-0.38 1.65-3.9 0.9-5.4c-0.75-1.5-2.1 0.15-3.3 2.33
	c-1.2 2.18-9.53 6.98-9.53 6.98s-8.4-3-17.86-0.9c-9.45 2.1-12.9 2.85-18.31 1.35c-5.4-1.5-24.31-2.4-31.96-2.55
	c-0.6-0.01-1.2-0.07-1.79-0.18h-6.07h-0.01h-0.01h-0.03h-0.03c-0.78-0.01-6.96-0.13-6.96-2.06v-5.23c1.95-1.95 3.1-4.1 4.24-6.59
	c0 0 0.47 0.21 1.3 0.05c0.84-0.16 1.57-2.67 1.36-4.65c-0.21-1.99-1.72-1.57-1.72-1.57c0-8.54-2.04-15.79-12.64-15.79
	c-10.61 0-12.64 7.25-12.64 15.79c0 0-1.52-0.42-1.73 1.57c-0.21 1.99 0.52 4.5 1.36 4.65c0.84 0.16 1.3-0.05 1.3-0.05
	c1.14 2.49 2.28 4.64 4.24 6.59v5.23c0 1.93-6.18 2.05-6.95 2.06h-0.03h-0.02h-0.01h-0.01H159.45L159.45 118.47z" fill-rule="evenodd" clip-rule="evenodd" fill="#0196FF"></path><path class="st1" d="M129.4 115.77c-4.21-2.26-8.2-4.51-13.48-6.01c-8.11-2.3-19.4-8.14-21.69-9.28c-2.3-1.15-4.44-0.97-8.53-2.45
	c-4.09-1.48-17.96-5.06-18.27-9.48c-0.31-4.42 3.06-8.47 7.77-6.92c4.71 1.54 8.38 2.87 8.36 2.46c-0.01-0.4-0.22-4.23 0.99-5.38
	c1.22-1.16 1.93 0.86 2.31 3.31c0.39 2.45 6.59 9.8 6.59 9.8s8.92 0.04 17.1 5.23c8.18 5.19 11.17 7.07 16.76 7.5
	c5.59 0.43 23.67 6.01 30.92 8.48C158.23 113.03 140.23 114.54 129.4 115.77L129.4 115.77z M205.07 196.07c0 0 0.3 11.11-0.75 19.36
	c-1.05 8.25-3.6 17.11-3.6 17.11s9.01 15.45 9.9 20.41c0.9 4.95-0.9 9.45 8.11 19.51c9 10.05 14.25 15.91 15.31 18.46
	c1.05 2.55 3.15 12.15 5.7 10.95c2.55-1.2 18.01-8.4 19.96-11.55c1.95-3.15-1.42-2.77-5.33-1.57c-3.9 1.2-12.31 0.52-14.63-3.98
	c-2.32-4.5-4.95-17.63-10.95-27.99c-6-10.36-9.16-12.61-11.4-23.86c-2.25-11.25-1.2-10.35-5.4-22.21
	C207.77 198.85 205.07 196.07 205.07 196.07L205.07 196.07z M152.4 197.87c0 0-5.55 8.4-6.9 15.46c-1.35 7.05-2.1 8.85-3.6 12.61
	c-1.5 3.75-6.9 9.6-11.4 15.61c-4.5 6.01-10.35 14.71-11.85 21.91c-1.5 7.2-3.15 18.16-6 21.61c-2.85 3.45-7.81 3.9-8.86 5.25
	c-1.05 1.35 2.1 4.65 6.15 7.35c4.05 2.7 9.15 1.5 9.3-1.35c0.15-2.85 0.6-11.56 4.05-16.81c3.45-5.25 14.4-22.21 16.51-27.31
	c2.1-5.1 1.8-6.76 3.75-8.56c1.95-1.8 10.95-12.3 10.95-12.3s-1.2-14.71-2.1-20.26C151.5 205.52 152.4 197.87 152.4 197.87
	L152.4 197.87z M230.65 115.77c4.21-2.26 8.2-4.51 13.48-6.01c8.11-2.3 19.4-8.14 21.7-9.28c2.3-1.15 4.44-0.97 8.53-2.45
	c4.09-1.48 17.95-5.06 18.27-9.48c0.31-4.42-3.06-8.47-7.77-6.92c-4.71 1.54-8.38 2.87-8.37 2.46c0.01-0.4 0.22-4.23-0.99-5.38
	c-1.21-1.16-1.92 0.86-2.31 3.31c-0.39 2.45-6.59 9.8-6.59 9.8s-8.92 0.04-17.1 5.23c-8.18 5.19-11.17 7.07-16.75 7.5
	c-5.59 0.43-23.67 6.01-30.92 8.48C201.82 113.03 219.81 114.54 230.65 115.77L230.65 115.77z" fill-rule="evenodd" clip-rule="evenodd" fill="#0000FF"></path><path class="st2" d="M216.19 25.9c71.34 15.95 124.53 78.05 124.53 152.23c0 86.27-71.95 156.21-160.7 156.21
	c-88.75 0-160.7-69.93-160.7-156.21c0-74.18 53.2-136.28 124.53-152.23v2.7C78.79 44.77 30.57 103.57 30.57 173.64
	c0 82.54 66.92 149.46 149.46 149.46s149.46-66.92 149.46-149.46c0-70.07-48.22-128.87-113.29-145.04V25.9L216.19 25.9z" fill-rule="evenodd" clip-rule="evenodd" fill="#000066"></path><path class="st3" d="M282.06 122.02c-0.93 0-1.73 0.54-2.13 1.32l-46.8 1.38c-0.42-0.71-1.18-1.19-2.06-1.19
	c-0.93 0-1.72 0.53-2.12 1.3l-30.27 0.64c-0.49-1.29-1.73-2.22-3.2-2.22c-1.07 0-2.02 0.5-2.65 1.28l-10.5-3.7
	c-0.12-0.7-0.56-1.29-1.15-1.63V93.14c1.21-0.47 2.07-1.63 2.07-3c0-1.78-1.45-3.23-3.22-3.23c-1.78 0-3.23 1.44-3.23 3.23
	c0 1.37 0.86 2.54 2.07 3v26.05c-0.71 0.4-1.2 1.16-1.2 2.03c0 0 0 0.01 0 0.01l-11.04 6.27c-0.46-0.33-1.02-0.53-1.62-0.53
	c-0.89 0-1.67 0.42-2.18 1.07L148 124.5c-0.25-1.28-1.37-2.25-2.72-2.25c-1.12 0-2.08 0.67-2.52 1.62l-37.86-0.13
	c-0.44-0.96-1.4-1.64-2.53-1.64c-1.53 0-2.78 1.24-2.78 2.78c0 1.53 1.24 2.78 2.78 2.78c1.12 0 2.08-0.67 2.52-1.62l37.86 0.13
	c0.44 0.96 1.4 1.64 2.53 1.64c0.89 0 1.67-0.43 2.18-1.07l14.83 3.55c0.21 1.08 1.04 1.93 2.11 2.18l6.59 32.16
	c-0.52 0.44-0.85 1.09-0.85 1.82c0 0.83 0.42 1.57 1.07 2l-4.32 48.12c-1.48 0.38-2.58 1.71-2.58 3.31c0 1.42 0.87 2.64 2.1 3.16
	l-2.85 49.9c-0.81 0.39-1.37 1.21-1.37 2.16c0 1.11 0.76 2.03 1.78 2.31l8.06 32.93l2.23-0.54l-8.06-32.93
	c0.48-0.44 0.79-1.06 0.79-1.76c0-0.86-0.46-1.61-1.13-2.03l2.85-49.91c1.42-0.42 2.47-1.72 2.47-3.28c0-0.83-0.31-1.58-0.8-2.18
	l9.58-16.09c0.01 0 0.01 0 0.02 0l10.71 21.11c-0.27 0.39-0.42 0.85-0.42 1.36c0 0.73 0.33 1.37 0.84 1.81L183 263.44
	c-1.68 0.22-2.98 1.65-2.98 3.39c0 1.7 1.24 3.11 2.87 3.38l6.96 38.7l2.26-0.41l-6.96-38.7c1.03-0.59 1.73-1.69 1.73-2.97
	c0-1.23-0.65-2.3-1.63-2.91l8.06-37.57c0.99-0.3 1.72-1.2 1.72-2.29c0-0.97-0.58-1.8-1.41-2.18l-2.32-31.9
	c1.21-0.53 2.05-1.73 2.05-3.14c0-1.38-0.82-2.56-1.99-3.11l4.96-53.75c1.13-0.29 2.03-1.14 2.39-2.23l30.27-0.64
	c0.41 0.72 1.18 1.21 2.07 1.21c0.93 0 1.73-0.54 2.13-1.32l46.8-1.38c0.42 0.71 1.18 1.19 2.06 1.19c1.32 0 2.4-1.08 2.4-2.4
	C284.47 123.1 283.39 122.02 282.06 122.02z M192.04 126.68c0 0.41 0.09 0.81 0.22 1.17l-8.22 6.87c-0.81-0.67-1.79-1.14-2.87-1.34
	v-10.13c0.14-0.08 0.27-0.17 0.38-0.27L192.04 126.68z M178.87 123.26v10.13c-1.32 0.25-2.5 0.9-3.4 1.84l-7.73-5.06
	c0.02-0.14 0.04-0.27 0.04-0.41c0-0.08-0.02-0.16-0.02-0.24l11.06-6.28C178.84 123.24 178.85 123.25 178.87 123.26z M174.21 137.15
	c-0.31 0.75-0.49 1.57-0.49 2.43c0 2.49 1.44 4.63 3.53 5.65l-4.56 16.32l-6.01-29.33L174.21 137.15z M179.46 145.85
	c0.18 0.02 0.37 0.03 0.56 0.03c0.05 0 0.1-0.01 0.14-0.01l7.71 36.8l-13.12-15.38c0.1-0.27 0.16-0.55 0.16-0.85
	c0-0.67-0.28-1.28-0.73-1.72L179.46 145.85z M186.97 185.15c-0.29 0.5-0.47 1.08-0.47 1.7c0 0.66 0.2 1.27 0.52 1.79l-6.41 7.98
	l-5.92-25.88L186.97 185.15z M182.24 198.27l6.58-8.2c0.07 0.02 0.13 0.04 0.2 0.06l2.05 28.31L182 200.56
	c0.27-0.39 0.42-0.85 0.42-1.36C182.42 198.87 182.36 198.56 182.24 198.27z M182.42 145.41c2.29-0.94 3.9-3.2 3.9-5.83
	c0-1.12-0.3-2.17-0.81-3.09l8.23-6.87c0.1 0.06 0.19 0.11 0.3 0.16l-4.55 49.36L182.42 145.41z M173.02 173.75l5.41 23.66
	c-0.5 0.44-0.81 1.08-0.81 1.79c0 0.45 0.13 0.86 0.34 1.22l-8.65 14.53L173.02 173.75z" fill="#FFFFFF"></path></svg>